<mxfile host="app.diagrams.net" modified="2022-04-24T18:28:54.548Z" agent="5.0 (Windows NT 10.0; Win64; x64) AppleWebKit/537.36 (KHTML, like Gecko) Chrome/100.0.4896.127 Safari/537.36" etag="ISBFExaiFaV-MEutFjcw" version="17.1.2" type="github">
  <diagram name="Page-1" id="2a216829-ef6e-dabb-86c1-c78162f3ba2b">
    <mxGraphModel dx="706" dy="1875" grid="1" gridSize="10" guides="1" tooltips="1" connect="1" arrows="1" fold="1" page="1" pageScale="1" pageWidth="850" pageHeight="1100" background="none" math="0" shadow="0">
      <root>
        <mxCell id="0" />
        <mxCell id="1" parent="0" />
        <mxCell id="L4dgy_tUqT2uIpiH9sDq-9" value="selling book via online bookstore&#xa;" style="swimlane;childLayout=stackLayout;resizeParent=1;resizeParentMax=0;horizontal=0;startSize=80;horizontalStack=0;fontSize=25;" vertex="1" parent="1">
          <mxGeometry x="1100" y="-230" width="1320" height="820" as="geometry" />
        </mxCell>
        <mxCell id="L4dgy_tUqT2uIpiH9sDq-10" value="Lane 1" style="swimlane;startSize=20;horizontal=0;" vertex="1" parent="L4dgy_tUqT2uIpiH9sDq-9">
          <mxGeometry x="80" width="1240" height="270" as="geometry" />
        </mxCell>
        <mxCell id="L4dgy_tUqT2uIpiH9sDq-11" value="Lane 2" style="swimlane;startSize=20;horizontal=0;" vertex="1" parent="L4dgy_tUqT2uIpiH9sDq-9">
          <mxGeometry x="80" y="270" width="1240" height="240" as="geometry" />
        </mxCell>
        <mxCell id="L4dgy_tUqT2uIpiH9sDq-12" value="Lane 3" style="swimlane;startSize=20;horizontal=0;" vertex="1" parent="L4dgy_tUqT2uIpiH9sDq-9">
          <mxGeometry x="80" y="510" width="1240" height="310" as="geometry" />
        </mxCell>
      </root>
    </mxGraphModel>
  </diagram>
</mxfile>
